<?xml version="1.0" encoding="utf-8" ?>
<svg baseProfile="tiny" height="100%" version="1.2" width="100%" xmlns="http://www.w3.org/2000/svg" xmlns:ev="http://www.w3.org/2001/xml-events" xmlns:xlink="http://www.w3.org/1999/xlink"><defs /><rect fill="black" height="10" width="10" x="80" y="80" /><rect fill="black" height="10" width="10" x="90" y="80" /><rect fill="black" height="10" width="10" x="100" y="80" /><rect fill="black" height="10" width="10" x="110" y="80" /><rect fill="black" height="10" width="10" x="120" y="80" /><rect fill="black" height="10" width="10" x="130" y="80" /><rect fill="black" height="10" width="10" x="140" y="80" /><rect fill="black" height="10" width="10" x="160" y="80" /><rect fill="black" height="10" width="10" x="190" y="80" /><rect fill="black" height="10" width="10" x="200" y="80" /><rect fill="black" height="10" width="10" x="260" y="80" /><rect fill="black" height="10" width="10" x="270" y="80" /><rect fill="black" height="10" width="10" x="280" y="80" /><rect fill="black" height="10" width="10" x="290" y="80" /><rect fill="black" height="10" width="10" x="300" y="80" /><rect fill="black" height="10" width="10" x="310" y="80" /><rect fill="black" height="10" width="10" x="320" y="80" /><rect fill="black" height="10" width="10" x="80" y="90" /><rect fill="black" height="10" width="10" x="140" y="90" /><rect fill="black" height="10" width="10" x="170" y="90" /><rect fill="black" height="10" width="10" x="180" y="90" /><rect fill="black" height="10" width="10" x="210" y="90" /><rect fill="black" height="10" width="10" x="220" y="90" /><rect fill="black" height="10" width="10" x="240" y="90" /><rect fill="black" height="10" width="10" x="260" y="90" /><rect fill="black" height="10" width="10" x="320" y="90" /><rect fill="black" height="10" width="10" x="80" y="100" /><rect fill="black" height="10" width="10" x="100" y="100" /><rect fill="black" height="10" width="10" x="110" y="100" /><rect fill="black" height="10" width="10" x="120" y="100" /><rect fill="black" height="10" width="10" x="140" y="100" /><rect fill="black" height="10" width="10" x="180" y="100" /><rect fill="black" height="10" width="10" x="200" y="100" /><rect fill="black" height="10" width="10" x="210" y="100" /><rect fill="black" height="10" width="10" x="230" y="100" /><rect fill="black" height="10" width="10" x="260" y="100" /><rect fill="black" height="10" width="10" x="280" y="100" /><rect fill="black" height="10" width="10" x="290" y="100" /><rect fill="black" height="10" width="10" x="300" y="100" /><rect fill="black" height="10" width="10" x="320" y="100" /><rect fill="black" height="10" width="10" x="80" y="110" /><rect fill="black" height="10" width="10" x="100" y="110" /><rect fill="black" height="10" width="10" x="110" y="110" /><rect fill="black" height="10" width="10" x="120" y="110" /><rect fill="black" height="10" width="10" x="140" y="110" /><rect fill="black" height="10" width="10" x="200" y="110" /><rect fill="black" height="10" width="10" x="210" y="110" /><rect fill="black" height="10" width="10" x="240" y="110" /><rect fill="black" height="10" width="10" x="260" y="110" /><rect fill="black" height="10" width="10" x="280" y="110" /><rect fill="black" height="10" width="10" x="290" y="110" /><rect fill="black" height="10" width="10" x="300" y="110" /><rect fill="black" height="10" width="10" x="320" y="110" /><rect fill="black" height="10" width="10" x="80" y="120" /><rect fill="black" height="10" width="10" x="100" y="120" /><rect fill="black" height="10" width="10" x="110" y="120" /><rect fill="black" height="10" width="10" x="120" y="120" /><rect fill="black" height="10" width="10" x="140" y="120" /><rect fill="black" height="10" width="10" x="170" y="120" /><rect fill="black" height="10" width="10" x="190" y="120" /><rect fill="black" height="10" width="10" x="220" y="120" /><rect fill="black" height="10" width="10" x="240" y="120" /><rect fill="black" height="10" width="10" x="260" y="120" /><rect fill="black" height="10" width="10" x="280" y="120" /><rect fill="black" height="10" width="10" x="290" y="120" /><rect fill="black" height="10" width="10" x="300" y="120" /><rect fill="black" height="10" width="10" x="320" y="120" /><rect fill="black" height="10" width="10" x="80" y="130" /><rect fill="black" height="10" width="10" x="140" y="130" /><rect fill="black" height="10" width="10" x="180" y="130" /><rect fill="black" height="10" width="10" x="200" y="130" /><rect fill="black" height="10" width="10" x="240" y="130" /><rect fill="black" height="10" width="10" x="260" y="130" /><rect fill="black" height="10" width="10" x="320" y="130" /><rect fill="black" height="10" width="10" x="80" y="140" /><rect fill="black" height="10" width="10" x="90" y="140" /><rect fill="black" height="10" width="10" x="100" y="140" /><rect fill="black" height="10" width="10" x="110" y="140" /><rect fill="black" height="10" width="10" x="120" y="140" /><rect fill="black" height="10" width="10" x="130" y="140" /><rect fill="black" height="10" width="10" x="140" y="140" /><rect fill="black" height="10" width="10" x="160" y="140" /><rect fill="black" height="10" width="10" x="180" y="140" /><rect fill="black" height="10" width="10" x="200" y="140" /><rect fill="black" height="10" width="10" x="220" y="140" /><rect fill="black" height="10" width="10" x="240" y="140" /><rect fill="black" height="10" width="10" x="260" y="140" /><rect fill="black" height="10" width="10" x="270" y="140" /><rect fill="black" height="10" width="10" x="280" y="140" /><rect fill="black" height="10" width="10" x="290" y="140" /><rect fill="black" height="10" width="10" x="300" y="140" /><rect fill="black" height="10" width="10" x="310" y="140" /><rect fill="black" height="10" width="10" x="320" y="140" /><rect fill="black" height="10" width="10" x="160" y="150" /><rect fill="black" height="10" width="10" x="180" y="150" /><rect fill="black" height="10" width="10" x="190" y="150" /><rect fill="black" height="10" width="10" x="210" y="150" /><rect fill="black" height="10" width="10" x="240" y="150" /><rect fill="black" height="10" width="10" x="80" y="160" /><rect fill="black" height="10" width="10" x="90" y="160" /><rect fill="black" height="10" width="10" x="110" y="160" /><rect fill="black" height="10" width="10" x="120" y="160" /><rect fill="black" height="10" width="10" x="140" y="160" /><rect fill="black" height="10" width="10" x="170" y="160" /><rect fill="black" height="10" width="10" x="180" y="160" /><rect fill="black" height="10" width="10" x="190" y="160" /><rect fill="black" height="10" width="10" x="200" y="160" /><rect fill="black" height="10" width="10" x="220" y="160" /><rect fill="black" height="10" width="10" x="240" y="160" /><rect fill="black" height="10" width="10" x="260" y="160" /><rect fill="black" height="10" width="10" x="320" y="160" /><rect fill="black" height="10" width="10" x="80" y="170" /><rect fill="black" height="10" width="10" x="90" y="170" /><rect fill="black" height="10" width="10" x="170" y="170" /><rect fill="black" height="10" width="10" x="200" y="170" /><rect fill="black" height="10" width="10" x="210" y="170" /><rect fill="black" height="10" width="10" x="220" y="170" /><rect fill="black" height="10" width="10" x="230" y="170" /><rect fill="black" height="10" width="10" x="250" y="170" /><rect fill="black" height="10" width="10" x="270" y="170" /><rect fill="black" height="10" width="10" x="280" y="170" /><rect fill="black" height="10" width="10" x="290" y="170" /><rect fill="black" height="10" width="10" x="300" y="170" /><rect fill="black" height="10" width="10" x="310" y="170" /><rect fill="black" height="10" width="10" x="80" y="180" /><rect fill="black" height="10" width="10" x="90" y="180" /><rect fill="black" height="10" width="10" x="100" y="180" /><rect fill="black" height="10" width="10" x="110" y="180" /><rect fill="black" height="10" width="10" x="120" y="180" /><rect fill="black" height="10" width="10" x="140" y="180" /><rect fill="black" height="10" width="10" x="150" y="180" /><rect fill="black" height="10" width="10" x="180" y="180" /><rect fill="black" height="10" width="10" x="190" y="180" /><rect fill="black" height="10" width="10" x="200" y="180" /><rect fill="black" height="10" width="10" x="210" y="180" /><rect fill="black" height="10" width="10" x="230" y="180" /><rect fill="black" height="10" width="10" x="240" y="180" /><rect fill="black" height="10" width="10" x="250" y="180" /><rect fill="black" height="10" width="10" x="260" y="180" /><rect fill="black" height="10" width="10" x="290" y="180" /><rect fill="black" height="10" width="10" x="320" y="180" /><rect fill="black" height="10" width="10" x="80" y="190" /><rect fill="black" height="10" width="10" x="90" y="190" /><rect fill="black" height="10" width="10" x="110" y="190" /><rect fill="black" height="10" width="10" x="150" y="190" /><rect fill="black" height="10" width="10" x="170" y="190" /><rect fill="black" height="10" width="10" x="180" y="190" /><rect fill="black" height="10" width="10" x="190" y="190" /><rect fill="black" height="10" width="10" x="200" y="190" /><rect fill="black" height="10" width="10" x="240" y="190" /><rect fill="black" height="10" width="10" x="250" y="190" /><rect fill="black" height="10" width="10" x="270" y="190" /><rect fill="black" height="10" width="10" x="290" y="190" /><rect fill="black" height="10" width="10" x="300" y="190" /><rect fill="black" height="10" width="10" x="310" y="190" /><rect fill="black" height="10" width="10" x="320" y="190" /><rect fill="black" height="10" width="10" x="80" y="200" /><rect fill="black" height="10" width="10" x="100" y="200" /><rect fill="black" height="10" width="10" x="140" y="200" /><rect fill="black" height="10" width="10" x="160" y="200" /><rect fill="black" height="10" width="10" x="170" y="200" /><rect fill="black" height="10" width="10" x="190" y="200" /><rect fill="black" height="10" width="10" x="230" y="200" /><rect fill="black" height="10" width="10" x="240" y="200" /><rect fill="black" height="10" width="10" x="260" y="200" /><rect fill="black" height="10" width="10" x="270" y="200" /><rect fill="black" height="10" width="10" x="320" y="200" /><rect fill="black" height="10" width="10" x="80" y="210" /><rect fill="black" height="10" width="10" x="90" y="210" /><rect fill="black" height="10" width="10" x="110" y="210" /><rect fill="black" height="10" width="10" x="130" y="210" /><rect fill="black" height="10" width="10" x="160" y="210" /><rect fill="black" height="10" width="10" x="170" y="210" /><rect fill="black" height="10" width="10" x="190" y="210" /><rect fill="black" height="10" width="10" x="210" y="210" /><rect fill="black" height="10" width="10" x="220" y="210" /><rect fill="black" height="10" width="10" x="230" y="210" /><rect fill="black" height="10" width="10" x="240" y="210" /><rect fill="black" height="10" width="10" x="280" y="210" /><rect fill="black" height="10" width="10" x="310" y="210" /><rect fill="black" height="10" width="10" x="80" y="220" /><rect fill="black" height="10" width="10" x="90" y="220" /><rect fill="black" height="10" width="10" x="100" y="220" /><rect fill="black" height="10" width="10" x="140" y="220" /><rect fill="black" height="10" width="10" x="160" y="220" /><rect fill="black" height="10" width="10" x="210" y="220" /><rect fill="black" height="10" width="10" x="220" y="220" /><rect fill="black" height="10" width="10" x="230" y="220" /><rect fill="black" height="10" width="10" x="250" y="220" /><rect fill="black" height="10" width="10" x="260" y="220" /><rect fill="black" height="10" width="10" x="280" y="220" /><rect fill="black" height="10" width="10" x="290" y="220" /><rect fill="black" height="10" width="10" x="300" y="220" /><rect fill="black" height="10" width="10" x="310" y="220" /><rect fill="black" height="10" width="10" x="320" y="220" /><rect fill="black" height="10" width="10" x="80" y="230" /><rect fill="black" height="10" width="10" x="110" y="230" /><rect fill="black" height="10" width="10" x="120" y="230" /><rect fill="black" height="10" width="10" x="170" y="230" /><rect fill="black" height="10" width="10" x="190" y="230" /><rect fill="black" height="10" width="10" x="220" y="230" /><rect fill="black" height="10" width="10" x="250" y="230" /><rect fill="black" height="10" width="10" x="260" y="230" /><rect fill="black" height="10" width="10" x="270" y="230" /><rect fill="black" height="10" width="10" x="290" y="230" /><rect fill="black" height="10" width="10" x="300" y="230" /><rect fill="black" height="10" width="10" x="320" y="230" /><rect fill="black" height="10" width="10" x="80" y="240" /><rect fill="black" height="10" width="10" x="100" y="240" /><rect fill="black" height="10" width="10" x="110" y="240" /><rect fill="black" height="10" width="10" x="120" y="240" /><rect fill="black" height="10" width="10" x="130" y="240" /><rect fill="black" height="10" width="10" x="140" y="240" /><rect fill="black" height="10" width="10" x="150" y="240" /><rect fill="black" height="10" width="10" x="160" y="240" /><rect fill="black" height="10" width="10" x="170" y="240" /><rect fill="black" height="10" width="10" x="180" y="240" /><rect fill="black" height="10" width="10" x="200" y="240" /><rect fill="black" height="10" width="10" x="210" y="240" /><rect fill="black" height="10" width="10" x="230" y="240" /><rect fill="black" height="10" width="10" x="240" y="240" /><rect fill="black" height="10" width="10" x="250" y="240" /><rect fill="black" height="10" width="10" x="260" y="240" /><rect fill="black" height="10" width="10" x="270" y="240" /><rect fill="black" height="10" width="10" x="280" y="240" /><rect fill="black" height="10" width="10" x="300" y="240" /><rect fill="black" height="10" width="10" x="310" y="240" /><rect fill="black" height="10" width="10" x="160" y="250" /><rect fill="black" height="10" width="10" x="180" y="250" /><rect fill="black" height="10" width="10" x="240" y="250" /><rect fill="black" height="10" width="10" x="280" y="250" /><rect fill="black" height="10" width="10" x="300" y="250" /><rect fill="black" height="10" width="10" x="310" y="250" /><rect fill="black" height="10" width="10" x="80" y="260" /><rect fill="black" height="10" width="10" x="90" y="260" /><rect fill="black" height="10" width="10" x="100" y="260" /><rect fill="black" height="10" width="10" x="110" y="260" /><rect fill="black" height="10" width="10" x="120" y="260" /><rect fill="black" height="10" width="10" x="130" y="260" /><rect fill="black" height="10" width="10" x="140" y="260" /><rect fill="black" height="10" width="10" x="180" y="260" /><rect fill="black" height="10" width="10" x="190" y="260" /><rect fill="black" height="10" width="10" x="200" y="260" /><rect fill="black" height="10" width="10" x="210" y="260" /><rect fill="black" height="10" width="10" x="240" y="260" /><rect fill="black" height="10" width="10" x="260" y="260" /><rect fill="black" height="10" width="10" x="280" y="260" /><rect fill="black" height="10" width="10" x="320" y="260" /><rect fill="black" height="10" width="10" x="80" y="270" /><rect fill="black" height="10" width="10" x="140" y="270" /><rect fill="black" height="10" width="10" x="170" y="270" /><rect fill="black" height="10" width="10" x="210" y="270" /><rect fill="black" height="10" width="10" x="230" y="270" /><rect fill="black" height="10" width="10" x="240" y="270" /><rect fill="black" height="10" width="10" x="280" y="270" /><rect fill="black" height="10" width="10" x="310" y="270" /><rect fill="black" height="10" width="10" x="80" y="280" /><rect fill="black" height="10" width="10" x="100" y="280" /><rect fill="black" height="10" width="10" x="110" y="280" /><rect fill="black" height="10" width="10" x="120" y="280" /><rect fill="black" height="10" width="10" x="140" y="280" /><rect fill="black" height="10" width="10" x="160" y="280" /><rect fill="black" height="10" width="10" x="170" y="280" /><rect fill="black" height="10" width="10" x="180" y="280" /><rect fill="black" height="10" width="10" x="220" y="280" /><rect fill="black" height="10" width="10" x="230" y="280" /><rect fill="black" height="10" width="10" x="240" y="280" /><rect fill="black" height="10" width="10" x="250" y="280" /><rect fill="black" height="10" width="10" x="260" y="280" /><rect fill="black" height="10" width="10" x="270" y="280" /><rect fill="black" height="10" width="10" x="280" y="280" /><rect fill="black" height="10" width="10" x="80" y="290" /><rect fill="black" height="10" width="10" x="100" y="290" /><rect fill="black" height="10" width="10" x="110" y="290" /><rect fill="black" height="10" width="10" x="120" y="290" /><rect fill="black" height="10" width="10" x="140" y="290" /><rect fill="black" height="10" width="10" x="160" y="290" /><rect fill="black" height="10" width="10" x="190" y="290" /><rect fill="black" height="10" width="10" x="250" y="290" /><rect fill="black" height="10" width="10" x="260" y="290" /><rect fill="black" height="10" width="10" x="310" y="290" /><rect fill="black" height="10" width="10" x="320" y="290" /><rect fill="black" height="10" width="10" x="80" y="300" /><rect fill="black" height="10" width="10" x="100" y="300" /><rect fill="black" height="10" width="10" x="110" y="300" /><rect fill="black" height="10" width="10" x="120" y="300" /><rect fill="black" height="10" width="10" x="140" y="300" /><rect fill="black" height="10" width="10" x="180" y="300" /><rect fill="black" height="10" width="10" x="190" y="300" /><rect fill="black" height="10" width="10" x="200" y="300" /><rect fill="black" height="10" width="10" x="210" y="300" /><rect fill="black" height="10" width="10" x="220" y="300" /><rect fill="black" height="10" width="10" x="230" y="300" /><rect fill="black" height="10" width="10" x="250" y="300" /><rect fill="black" height="10" width="10" x="280" y="300" /><rect fill="black" height="10" width="10" x="290" y="300" /><rect fill="black" height="10" width="10" x="300" y="300" /><rect fill="black" height="10" width="10" x="310" y="300" /><rect fill="black" height="10" width="10" x="320" y="300" /><rect fill="black" height="10" width="10" x="80" y="310" /><rect fill="black" height="10" width="10" x="140" y="310" /><rect fill="black" height="10" width="10" x="160" y="310" /><rect fill="black" height="10" width="10" x="170" y="310" /><rect fill="black" height="10" width="10" x="180" y="310" /><rect fill="black" height="10" width="10" x="230" y="310" /><rect fill="black" height="10" width="10" x="250" y="310" /><rect fill="black" height="10" width="10" x="270" y="310" /><rect fill="black" height="10" width="10" x="280" y="310" /><rect fill="black" height="10" width="10" x="300" y="310" /><rect fill="black" height="10" width="10" x="310" y="310" /><rect fill="black" height="10" width="10" x="320" y="310" /><rect fill="black" height="10" width="10" x="80" y="320" /><rect fill="black" height="10" width="10" x="90" y="320" /><rect fill="black" height="10" width="10" x="100" y="320" /><rect fill="black" height="10" width="10" x="110" y="320" /><rect fill="black" height="10" width="10" x="120" y="320" /><rect fill="black" height="10" width="10" x="130" y="320" /><rect fill="black" height="10" width="10" x="140" y="320" /><rect fill="black" height="10" width="10" x="160" y="320" /><rect fill="black" height="10" width="10" x="170" y="320" /><rect fill="black" height="10" width="10" x="200" y="320" /><rect fill="black" height="10" width="10" x="220" y="320" /><rect fill="black" height="10" width="10" x="240" y="320" /><rect fill="black" height="10" width="10" x="260" y="320" /><rect fill="black" height="10" width="10" x="290" y="320" /><rect fill="black" height="10" width="10" x="320" y="320" /></svg>